<?xml version="1.0" standalone="no"?>
<!DOCTYPE svg PUBLIC "-//W3C//DTD SVG 20010904//EN"
 "http://www.w3.org/TR/2001/REC-SVG-20010904/DTD/svg10.dtd">
<svg version="1.0" xmlns="http://www.w3.org/2000/svg"
 width="500.000000pt" height="500.000000pt" viewBox="0 0 500.000000 500.000000"
 preserveAspectRatio="xMidYMid meet">
<metadata>
Created by potrace 1.11, written by Peter Selinger 2001-2013
</metadata>
<g transform="translate(0.000000,500.000000) scale(0.100000,-0.100000)"
fill="#000000" stroke="none">
<path d="M2088 4779 c-262 -14 -490 -75 -743 -199 -236 -115 -397 -232 -576
-417 -218 -226 -352 -446 -455 -746 -96 -282 -120 -501 -111 -1037 8 -442 21
-541 103 -790 76 -228 183 -430 322 -605 57 -72 291 -315 303 -315 4 0 9 501
12 1112 5 1221 3 1182 67 1381 58 182 153 338 295 486 170 177 355 288 600
358 90 26 92 26 533 30 495 5 557 1 716 -52 192 -62 342 -153 490 -294 229
-220 324 -408 402 -798 l4 -23 371 0 371 0 -6 28 c-3 15 -12 81 -21 148 -43
343 -200 709 -422 984 -83 102 -271 284 -370 357 -301 223 -649 355 -1037 392
-124 12 -612 12 -848 0z"/>
<path d="M2113 3285 c-151 -33 -293 -146 -364 -290 -54 -109 -62 -189 -57
-575 4 -296 5 -307 29 -370 75 -196 237 -328 431 -350 135 -16 651 -12 731 5
174 37 328 176 389 352 22 66 23 76 23 433 0 350 -1 368 -22 436 -61 194 -237
338 -443 364 -126 15 -640 12 -717 -5z"/>
<path d="M4040 2073 c-53 -273 -122 -445 -246 -614 -136 -184 -331 -337 -535
-418 -217 -87 -405 -107 -884 -97 -333 7 -439 20 -581 70 -54 20 -100 36 -101
36 -2 0 -3 -173 -3 -384 0 -295 3 -386 13 -394 19 -16 209 -51 341 -63 181
-17 912 -6 1036 15 610 104 1119 452 1428 975 98 167 187 387 227 565 14 61
54 322 55 354 0 9 -80 12 -369 12 l-370 0 -11 -57z"/>
</g>
</svg>
